<svg width="600" height="600" fill="none" xmlns="http://www.w3.org/2000/svg"><g clip-path="url(#a)"><path d="M315.259 292.814 176.999 524 54.594 450.537a13 13 0 0 1-6.31-11.146V301l266.975-8.186z" fill="#F8DB46"/><path d="M293.725 292.811 168.85 81.815l120.054-64.873a20 20 0 0 1 20.648.061L431.5 84 293.725 292.81z" fill="#3F96FC"/><path d="m306.651 288.503 129.181 223.914-121.851 71.349a29.998 29.998 0 0 1-31.539-.56L165.5 519.5l141.151-230.997z" fill="#F06A2B"/><path d="M297.042 288.891h252.957L550 441.999l-119.498 74.5-133.46-227.608z" fill="#DB2323"/><path d="M293.733 300.797 428.504 83l105.969 57.293a36 36 0 0 1 18.878 31.668v128.836H293.733z" fill="#41CC4F"/><path d="M299 301.5H46.961V168.398a26 26 0 0 1 13.501-22.799L171 84.999 299 301.5z" fill="#5627FF"/><path d="M278.061 98.12a44.002 44.002 0 0 1 43.878 0l142 81.678A44.002 44.002 0 0 1 486 217.939v164.123a43.999 43.999 0 0 1-22.061 38.14l-142 81.679a44 44 0 0 1-43.878 0l-142-81.679A43.999 43.999 0 0 1 114 382.062V217.939a44.002 44.002 0 0 1 22.061-38.141l142-81.679z" fill="#fff"/><path fill-rule="evenodd" clip-rule="evenodd" d="m326.925 89.45 142 81.68A53.999 53.999 0 0 1 496 217.939v164.123a53.998 53.998 0 0 1-27.075 46.808l-142 81.679a53.998 53.998 0 0 1-53.85 0l-142-81.679A53.998 53.998 0 0 1 104 382.062V217.939a54 54 0 0 1 27.075-46.809l142-81.68a54.002 54.002 0 0 1 53.85 0zm-4.986 8.67a44.002 44.002 0 0 0-43.878 0l-142 81.678A44.002 44.002 0 0 0 114 217.939v164.123a43.999 43.999 0 0 0 22.061 38.14l142 81.679a44 44 0 0 0 43.878 0l142-81.679A43.999 43.999 0 0 0 486 382.062V217.939a44.002 44.002 0 0 0-22.061-38.141l-142-81.679z" fill="#05060F"/><path d="M281.889 176.857a36.195 36.195 0 0 1 36.222 0l77.886 45.011a36.193 36.193 0 0 1 18.085 31.339v90.727a36.196 36.196 0 0 1-18.085 31.34l-77.886 45.01a36.195 36.195 0 0 1-36.222 0l-77.886-45.01a36.196 36.196 0 0 1-18.085-31.34v-90.727a36.193 36.193 0 0 1 18.085-31.339l77.886-45.011z" fill="#05060F"/><path fill-rule="evenodd" clip-rule="evenodd" d="M237.625 266.698c0-1.492 1.615-2.425 2.908-1.679l45.568 26.289a3.878 3.878 0 0 1 1.94 3.359v64.209c0 1.493-1.615 2.426-2.908 1.68l-45.568-26.289a3.88 3.88 0 0 1-1.94-3.359V311.54a.97.97 0 0 1 1.447-.844l26.839 15.17a.969.969 0 0 0 1.446-.844v-20.098c0-.932-.501-1.792-1.313-2.251l-26.449-14.95a3.879 3.879 0 0 1-1.97-3.376v-17.649zm121.839-1.679c1.293-.746 2.908.187 2.908 1.679v17.649a3.879 3.879 0 0 1-1.97 3.376l-26.449 14.95a2.585 2.585 0 0 0-1.313 2.251v20.098c0 .743.8 1.21 1.446.844l26.839-15.17a.97.97 0 0 1 1.447.844v19.368a3.88 3.88 0 0 1-1.94 3.359l-45.568 26.289c-1.293.746-2.908-.187-2.908-1.68v-64.209c0-1.386.74-2.667 1.94-3.359l45.568-26.289zm-63.303-35.366a7.759 7.759 0 0 1 7.675 0l37.499 21.35c1.302.741 1.308 2.615.01 3.364l-18.743 10.824a2.585 2.585 0 0 1-2.557.016l-18.782-10.529a2.583 2.583 0 0 0-2.529 0l-18.782 10.529a2.585 2.585 0 0 1-2.557-.016l-18.743-10.824c-1.298-.749-1.292-2.623.01-3.364l37.499-21.35z" fill="#fff"/><path fill-rule="evenodd" clip-rule="evenodd" d="m524.963 143.145-202-116.374a46 46 0 0 0-45.926 0l-202 116.374A46 46 0 0 0 52 183.004v233.995a46 46 0 0 0 23.037 39.859l202 116.374a46.003 46.003 0 0 0 45.926 0l202-116.374A46.001 46.001 0 0 0 548 416.999V183.004a46 46 0 0 0-23.037-39.859zM327.955 18.106a56.001 56.001 0 0 0-55.91 0l-202 116.374A56 56 0 0 0 42 183.004v233.995a56 56 0 0 0 28.045 48.524l202 116.373a56.002 56.002 0 0 0 55.91.001l202-116.374A56 56 0 0 0 558 416.999V183.004a56 56 0 0 0-28.045-48.524l-202-116.374z" fill="#05060F"/></g><defs><clipPath id="a"><path fill="#fff" d="M0 0h600v600H0z"/></clipPath></defs></svg>